<?xml version="1.0" standalone="no"?><!DOCTYPE svg PUBLIC "-//W3C//DTD SVG 1.1//EN" "http://www.w3.org/Graphics/SVG/1.1/DTD/svg11.dtd"><svg width="100%" height="100%" viewBox="0 0 661 526" version="1.1" xmlns="http://www.w3.org/2000/svg" xmlns:xlink="http://www.w3.org/1999/xlink" xml:space="preserve" style="fill-rule:evenodd;clip-rule:evenodd;stroke-linejoin:round;stroke-miterlimit:1.41421;"><g><path d="M97.4,96.8c-1.8,32.6 -16.8,50.8 -42.4,50.8c-29.2,0 -45.6,-22.6 -45.6,-73.8c0,-51.2 16.4,-73.8 45.6,-73.8c29,0 41,20.6 41,44l-12.8,0c0,-19.4 -9.8,-33.2 -28.2,-33.2c-20.4,0 -32.8,16.8 -32.8,63c0,46.2 12.4,63 32.8,63c18,0 28.2,-15.4 29.6,-40l12.8,0Z" style="fill:#000;fill-rule:nonzero;"/><path d="M114.4,2.4l39.4,0c27.6,0 38.4,14.6 38.4,35.8c0,14 -7.6,27.4 -22,31l0,0.4c17.6,3.4 26.6,17 26.6,35.6c0,25 -16.2,40 -43.2,40l-39.2,0l0,-142.8l0,0ZM127.2,65.2l20.2,0c22,0 32,-9.4 32,-26c0,-19 -9.8,-26 -29.8,-26l-22.4,0l0,52ZM127.2,134.4l23.8,0c22.2,0 33,-10 33,-29.2c0,-19.2 -10.8,-29.2 -33,-29.2l-23.8,0l0,58.4Z" style="fill:#000;fill-rule:nonzero;"/><path d="M214.4,2.4l70.8,0l0,10.8l-58,0l0,52l54.2,0l0,10.8l-54.2,0l0,58.4l59.8,0l0,10.8l-72.6,0l0,-142.8l0,0Z" style="fill:#000;fill-rule:nonzero;"/><path d="M0,192.4l13.6,0l31.8,129.2l0.4,0l31.8,-129.2l13.6,0l-37.6,142.8l-16,0l-37.6,-142.8Z" style="fill:#000;fill-rule:nonzero;"/><path d="M103,192.4l70.8,0l0,10.8l-58,0l0,52l54.2,0l0,10.8l-54.2,0l0,58.4l59.8,0l0,10.8l-72.6,0l0,-142.8Z" style="fill:#000;fill-rule:nonzero;"/><path d="M191.8,192.4l17.2,0l54.6,124.4l0.4,0l0,-124.4l12.8,0l0,142.8l-17.2,0l-54.6,-124.4l-0.4,0l0,124.4l-12.8,0l0,-142.8Z" style="fill:#000;fill-rule:nonzero;"/><path d="M326,203.2l-36.8,0l0,-10.8l86.4,0l0,10.8l-36.8,0l0,132l-12.8,0l0,-132l0,0Z" style="fill:#000;fill-rule:nonzero;"/><path d="M386,192.4l12.8,0l0,102.6c0,21.4 9.2,31.8 28,31.8c18.8,0 28,-10.4 28,-31.8l0,-102.6l12.8,0l0,102.8c0,30 -14.6,42.4 -40.8,42.4c-26.2,0 -40.8,-12.4 -40.8,-42.4l0,-102.8l0,0Z" style="fill:#000;fill-rule:nonzero;"/><path d="M488,192.4l42.6,0c23.8,0 37,13.6 37,35.8c0,17.2 -6.8,32.6 -25.8,36.2l0,0.4c17.8,1.6 23.8,11.8 24.4,33.8l0.4,15.6c0.2,7.8 1,15.4 6,21l-15,0c-3,-5 -3.6,-12.4 -3.8,-20l-0.4,-12c-0.8,-25.2 -5.4,-33.2 -28.4,-33.2l-24.2,0l0,65.2l-12.8,0l0,-142.8l0,0ZM500.8,259.2l22,0c20.2,0 32,-9.2 32,-28c0,-17.4 -7.4,-28 -30.6,-28l-23.4,0l0,56Z" style="fill:#000;fill-rule:nonzero;"/><path d="M588,192.4l70.8,0l0,10.8l-58,0l0,52l54.2,0l0,10.8l-54.2,0l0,58.4l59.8,0l0,10.8l-72.6,0l0,-142.8Z" style="fill:#000;fill-rule:nonzero;"/><path d="M10.6,382.4l12.8,0l0,132l59.2,0l0,10.8l-72,0l0,-142.8Z" style="fill:#000;fill-rule:nonzero;"/><path d="M126.6,382.4l16,0l42.2,142.8l-13.6,0l-11.6,-41.6l-50,0l-11.6,41.6l-13.6,0l42.2,-142.8ZM156.8,472.8l-22,-80.4l-0.4,0l-22,80.4l44.4,0Z" style="fill:#000;fill-rule:nonzero;"/><path d="M195.8,382.4l39.4,0c27.6,0 38.4,14.6 38.4,35.8c0,14 -7.6,27.4 -22,31l0,0.4c17.6,3.4 26.6,17 26.6,35.6c0,25 -16.2,40 -43.2,40l-39.2,0l0,-142.8l0,0ZM208.6,445.2l20.2,0c22,0 32,-9.4 32,-26c0,-19 -9.8,-26 -29.8,-26l-22.4,0l0,52ZM208.6,514.4l23.8,0c22.2,0 33,-10 33,-29.2c0,-19.2 -10.8,-29.2 -33,-29.2l-23.8,0l0,58.4Z" style="fill:#000;fill-rule:nonzero;"/></g></svg>